<?xml version="1.0" encoding="UTF-8" standalone="no"?><!DOCTYPE svg PUBLIC "-//W3C//DTD SVG 1.1//EN" "http://www.w3.org/Graphics/SVG/1.1/DTD/svg11.dtd"><svg width="3000px" height="3000px" version="1.1" xmlns="http://www.w3.org/2000/svg" xmlns:xlink="http://www.w3.org/1999/xlink" xml:space="preserve" xmlns:serif="http://www.serif.com/" style="fill-rule:evenodd;clip-rule:evenodd;stroke-linejoin:round;stroke-miterlimit:2;"><g transform="matrix(1,0,0,1,-3248,0)"><g id="DRO-Logo-3000" serif:id="DRO Logo 3000" transform="matrix(2.47047,0,0,3.66395,2743.59,574.987)"><rect x="204.462" y="-156.931" width="1214.35" height="818.788" style="fill:none;"/><clipPath id="_clip1"><rect x="204.462" y="-156.931" width="1214.35" height="818.788"/></clipPath><g clip-path="url(#_clip1)"><g id="Outer" transform="matrix(16.8659,0,0,11.3721,204.462,-156.931)"><path d="M0,36C0,16.131 16.131,0 36,0C55.869,0 72,16.131 72,36C72,55.869 55.869,72 36,72C16.131,72 0,55.869 0,36ZM3,36C3,27.25 6.48,18.85 12.67,12.67C18.85,6.48 27.25,3 36,3C44.75,3 53.15,6.48 59.33,12.67C65.52,18.85 69,27.25 69,36C69,44.75 65.52,53.15 59.33,59.33C53.15,65.52 44.75,69 36,69C27.25,69 18.85,65.52 12.67,59.33C6.48,53.15 3,44.75 3,36Z" style="fill:white;"/></g><g id="Inner" transform="matrix(16.8659,0,0,11.3721,204.462,-156.931)"><path d="M28.723,63.724C29.026,64.001 29.101,64.449 28.904,64.81C28.708,65.171 28.291,65.352 27.894,65.248C20.8,63.235 14.764,58.653 10.834,52.559C10.661,52.282 10.651,51.934 10.809,51.649C10.967,51.364 11.267,51.187 11.592,51.187C13.848,51.183 17.861,51.183 19.359,51.183C19.714,51.183 20.036,51.392 20.18,51.716C22.234,56.272 25.152,60.347 28.723,63.724ZM34.749,9.195C34.749,8.852 34.554,8.538 34.246,8.386C33.937,8.235 33.569,8.272 33.298,8.483C32.153,9.38 31.06,10.354 30.026,11.401C27.637,13.813 25.635,16.547 24.061,19.501C23.915,19.779 23.926,20.114 24.089,20.382C24.252,20.651 24.543,20.815 24.857,20.815C27.241,20.817 31.893,20.817 33.849,20.817C34.088,20.817 34.317,20.722 34.485,20.553C34.654,20.385 34.749,20.156 34.749,19.917C34.749,17.728 34.749,12.095 34.749,9.195ZM34.749,62.805C34.749,63.148 34.554,63.462 34.246,63.614C33.937,63.765 33.569,63.728 33.298,63.517C32.153,62.62 31.06,61.646 30.026,60.599C27.637,58.187 25.635,55.453 24.061,52.499C23.915,52.221 23.926,51.886 24.089,51.618C24.252,51.349 24.543,51.185 24.857,51.185C27.241,51.183 31.893,51.183 33.849,51.183C34.088,51.183 34.317,51.278 34.485,51.447C34.654,51.615 34.749,51.844 34.749,52.083C34.749,54.272 34.749,59.905 34.749,62.805ZM37.251,9.193C37.251,8.849 37.446,8.535 37.755,8.384C38.064,8.233 38.432,8.271 38.703,8.482C39.847,9.38 40.94,10.354 41.974,11.401C44.363,13.813 46.365,16.547 47.939,19.501C48.085,19.779 48.074,20.114 47.911,20.382C47.748,20.651 47.457,20.815 47.143,20.815C44.759,20.817 40.107,20.817 38.151,20.817C37.912,20.817 37.683,20.722 37.515,20.553C37.346,20.385 37.251,20.156 37.251,19.917C37.251,17.729 37.251,12.096 37.251,9.193ZM43.275,63.724C42.973,64.002 42.898,64.45 43.094,64.811C43.291,65.171 43.707,65.352 44.105,65.249C51.199,63.236 57.236,58.654 61.167,52.558C61.34,52.282 61.349,51.934 61.191,51.649C61.033,51.364 60.733,51.187 60.408,51.187C58.152,51.183 54.139,51.183 52.641,51.183C52.286,51.183 51.964,51.392 51.82,51.716C49.766,56.272 46.847,60.347 43.275,63.724ZM43.275,8.276C42.973,7.998 42.898,7.55 43.094,7.189C43.291,6.829 43.707,6.648 44.105,6.751C51.199,8.764 57.236,13.346 61.167,19.442C61.34,19.718 61.349,20.066 61.191,20.351C61.033,20.636 60.733,20.813 60.408,20.813C58.152,20.817 54.139,20.817 52.641,20.817C52.286,20.817 51.964,20.608 51.82,20.284C49.766,15.728 46.847,11.653 43.275,8.276ZM37.251,62.807C37.251,63.151 37.446,63.465 37.755,63.616C38.064,63.767 38.432,63.729 38.703,63.518C39.847,62.62 40.94,61.646 41.974,60.599C44.363,58.187 46.365,55.453 47.939,52.499C48.085,52.221 48.074,51.886 47.911,51.618C47.748,51.349 47.457,51.185 47.143,51.185C44.759,51.183 40.107,51.183 38.151,51.183C37.912,51.183 37.683,51.278 37.515,51.447C37.346,51.615 37.251,51.844 37.251,52.083C37.251,54.271 37.251,59.904 37.251,62.807ZM28.723,8.276C29.026,7.999 29.101,7.551 28.904,7.19C28.708,6.829 28.291,6.648 27.894,6.752C20.8,8.765 14.764,13.347 10.834,19.441C10.661,19.718 10.651,20.066 10.809,20.351C10.967,20.636 11.267,20.813 11.592,20.813C13.848,20.817 17.861,20.817 19.359,20.817C19.714,20.817 20.036,20.608 20.18,20.284C22.234,15.728 25.152,11.653 28.723,8.276ZM18.403,32.645C18.241,32.653 18.114,32.787 18.114,32.949C18.114,34.062 18.114,38.358 18.114,39.228C18.114,39.273 18.131,39.316 18.163,39.348C18.195,39.381 18.238,39.399 18.283,39.399C18.286,39.398 18.288,39.398 18.291,39.398L18.468,39.398C18.919,39.398 19.297,39.312 19.603,39.14C19.908,38.969 20.155,38.733 20.343,38.432C20.531,38.131 20.665,37.774 20.746,37.361C20.826,36.948 20.866,36.495 20.866,36.001C20.866,35.572 20.834,35.153 20.77,34.745C20.705,34.338 20.593,33.978 20.432,33.667C20.271,33.356 20.051,33.106 19.772,32.918C19.493,32.731 19.133,32.637 18.693,32.637C18.607,32.637 18.51,32.64 18.403,32.645C18.403,32.645 18.403,32.645 18.403,32.645ZM36.84,34.207C36.84,33.675 36.677,33.284 36.351,33.034C36.024,32.784 35.595,32.659 35.063,32.659C34.986,32.659 34.894,32.662 34.785,32.667C34.785,32.667 34.784,32.667 34.784,32.667C34.602,32.676 34.459,32.826 34.459,33.009C34.459,33.547 34.459,34.675 34.459,35.3C34.459,35.417 34.505,35.529 34.588,35.611C34.67,35.694 34.782,35.74 34.899,35.74C34.899,35.74 34.899,35.74 34.899,35.74C35.584,35.74 36.079,35.607 36.383,35.341C36.688,35.074 36.84,34.696 36.84,34.207ZM22.879,36.001C22.879,36.924 22.764,37.71 22.533,38.359C22.302,39.008 21.982,39.537 21.575,39.945C21.167,40.353 20.681,40.651 20.118,40.839C19.555,41.026 18.935,41.12 18.258,41.12C17.904,41.12 17.558,41.101 17.22,41.064C17.118,41.053 17.013,41.039 16.907,41.023C16.464,40.96 16.134,40.581 16.134,40.133C16.134,38.325 16.134,33.723 16.134,31.908C16.133,31.457 16.467,31.075 16.914,31.015C17.082,30.993 17.246,30.975 17.405,30.962C17.802,30.93 18.173,30.914 18.516,30.914C19.171,30.914 19.769,31.011 20.311,31.204C20.853,31.397 21.312,31.7 21.687,32.113C22.063,32.526 22.356,33.052 22.565,33.691C22.774,34.33 22.879,35.1 22.879,36.001ZM35.063,30.914C35.639,30.914 36.161,30.979 36.628,31.11C37.095,31.24 37.497,31.441 37.834,31.713C38.171,31.985 38.43,32.33 38.609,32.748C38.788,33.167 38.878,33.659 38.878,34.224C38.878,34.811 38.758,35.343 38.519,35.822C38.387,36.086 38.207,36.315 37.979,36.509C37.656,36.791 37.584,37.264 37.808,37.629C37.83,37.71 37.873,37.78 37.916,37.851C38.122,38.194 38.323,38.552 38.519,38.927C38.714,39.302 38.902,39.677 39.081,40.052C39.081,40.052 39.081,40.053 39.081,40.053C39.192,40.284 39.176,40.555 39.039,40.772C38.902,40.989 38.664,41.12 38.408,41.12C38.284,41.12 38.162,41.12 38.048,41.12C37.688,41.12 37.362,40.904 37.221,40.572C37.025,40.114 36.808,39.669 36.571,39.237C36.287,38.721 35.985,38.199 35.666,37.671C35.566,37.505 35.385,37.403 35.191,37.403C35.191,37.403 35.191,37.403 35.191,37.403C34.997,37.403 34.811,37.48 34.673,37.617C34.536,37.755 34.459,37.941 34.459,38.135C34.459,38.733 34.459,39.581 34.459,40.22C34.459,40.717 34.056,41.12 33.559,41.12C33.491,41.12 33.422,41.12 33.354,41.12C32.857,41.12 32.454,40.717 32.454,40.22C32.454,38.235 32.454,33.52 32.454,31.809C32.454,31.433 32.726,31.113 33.097,31.053C33.098,31.053 33.098,31.053 33.098,31.053C33.331,31.015 33.568,30.988 33.807,30.971C34.046,30.955 34.275,30.941 34.492,30.93C34.709,30.919 34.9,30.914 35.063,30.914ZM51.569,45C51.167,45 50.814,45.268 50.704,45.655C50.471,46.467 50.209,47.271 49.919,48.064C49.789,48.418 49.452,48.653 49.075,48.653C47.035,48.653 40.547,48.653 38.151,48.653C37.912,48.653 37.683,48.558 37.515,48.389C37.346,48.221 37.251,47.992 37.251,47.753C37.251,47.189 37.251,46.464 37.251,45.9C37.251,45.403 36.848,45 36.351,45C36.123,45 35.877,45 35.649,45C35.152,45 34.749,45.403 34.749,45.9C34.749,46.464 34.749,47.189 34.749,47.753C34.749,47.992 34.654,48.221 34.485,48.389C34.317,48.558 34.088,48.653 33.849,48.653C31.453,48.653 24.965,48.653 22.925,48.653C22.548,48.653 22.21,48.418 22.08,48.064C21.791,47.271 21.529,46.467 21.296,45.654C21.187,45.267 20.833,45 20.431,45C20.027,45 19.506,45 19.04,45C18.76,45 18.495,45.13 18.325,45.353C18.155,45.576 18.098,45.865 18.171,46.136C18.296,46.588 18.428,47.036 18.567,47.482C18.654,47.755 18.605,48.053 18.435,48.285C18.266,48.516 17.996,48.653 17.71,48.653C15.484,48.653 10.907,48.653 9.286,48.653C8.928,48.653 8.604,48.441 8.461,48.113C7.019,44.766 6.156,41.107 6,37.265L6.026,37.265C6.009,36.846 6,36.424 6,36L6,34.735C6.156,30.893 7.019,27.234 8.462,23.887C8.605,23.56 8.928,23.348 9.286,23.348C10.907,23.347 15.484,23.347 17.71,23.347C17.996,23.347 18.266,23.484 18.435,23.715C18.605,23.947 18.654,24.245 18.567,24.518C18.428,24.964 18.296,25.412 18.172,25.864C18.099,26.135 18.155,26.424 18.326,26.647C18.496,26.869 18.76,27 19.04,27C19.506,27 20.027,27 20.431,27C20.833,27 21.186,26.732 21.296,26.345C21.529,25.533 21.791,24.729 22.081,23.936C22.211,23.582 22.548,23.347 22.925,23.347C24.965,23.347 31.453,23.347 33.849,23.347C34.088,23.347 34.317,23.442 34.485,23.611C34.654,23.779 34.749,24.008 34.749,24.247C34.749,24.811 34.749,25.536 34.749,26.1C34.749,26.597 35.152,27 35.649,27C35.877,27 36.123,27 36.351,27C36.848,27 37.251,26.597 37.251,26.1C37.251,25.536 37.251,24.811 37.251,24.247C37.251,24.008 37.346,23.779 37.515,23.611C37.683,23.442 37.912,23.347 38.151,23.347C40.547,23.347 47.035,23.347 49.075,23.347C49.452,23.347 49.79,23.582 49.92,23.936C50.209,24.729 50.471,25.533 50.704,26.346C50.813,26.733 51.167,27 51.569,27C51.973,27 52.494,27 52.96,27C53.24,27 53.505,26.87 53.675,26.647C53.845,26.424 53.902,26.135 53.829,25.864C53.704,25.412 53.572,24.964 53.433,24.518C53.346,24.245 53.395,23.947 53.565,23.715C53.734,23.484 54.004,23.347 54.29,23.347C56.516,23.347 61.093,23.347 62.714,23.347C63.072,23.347 63.396,23.559 63.539,23.887C64.981,27.234 65.844,30.893 66,34.735L65.974,34.735C65.991,35.154 66,35.576 66,36C66,36.424 65.991,36.846 65.974,37.265L66,37.265C65.844,41.107 64.981,44.766 63.538,48.113C63.395,48.44 63.072,48.652 62.714,48.652C61.093,48.653 56.516,48.653 54.29,48.653C54.004,48.653 53.734,48.516 53.565,48.285C53.395,48.053 53.346,47.755 53.433,47.482C53.572,47.036 53.704,46.588 53.828,46.136C53.901,45.865 53.845,45.576 53.674,45.353C53.504,45.131 53.24,45 52.96,45C52.494,45 51.973,45 51.569,45ZM51.04,36.017C51.04,36.491 51.058,36.936 51.095,37.352C51.132,37.768 51.205,38.129 51.316,38.434C51.427,38.74 51.582,38.982 51.782,39.161C51.982,39.34 52.251,39.43 52.588,39.43C52.915,39.43 53.181,39.34 53.386,39.161C53.591,38.982 53.749,38.738 53.86,38.427C53.971,38.116 54.044,37.755 54.081,37.344C54.118,36.933 54.136,36.491 54.136,36.017C54.136,35.543 54.118,35.098 54.081,34.682C54.044,34.266 53.971,33.905 53.86,33.6C53.749,33.295 53.594,33.052 53.394,32.873C53.194,32.694 52.925,32.605 52.588,32.605C52.251,32.605 51.982,32.694 51.782,32.873C51.582,33.052 51.427,33.297 51.316,33.608C51.205,33.919 51.132,34.279 51.095,34.69C51.058,35.101 51.04,35.543 51.04,36.017ZM49.065,36.017C49.065,34.332 49.376,33.06 49.997,32.202C50.618,31.343 51.482,30.914 52.588,30.914C53.736,30.914 54.61,31.343 55.211,32.202C55.811,33.06 56.111,34.332 56.111,36.017C56.111,37.702 55.806,38.974 55.195,39.833C54.584,40.691 53.721,41.12 52.604,41.12C51.456,41.12 50.579,40.691 49.973,39.833C49.368,38.974 49.065,37.702 49.065,36.017Z" style="fill:white;"/></g></g></g></g></svg>